HIERARCHY
ROOT Hips
{
	OFFSET 0.000000 0.000000 0.000000
	CHANNELS 6 Xposition Yposition Zposition Xrotation Yrotation Zrotation
	JOINT LeftUpLeg_virtual
	{
		OFFSET 0.000000 0.000000 0.000000
		CHANNELS 3 Xrotation Yrotation Zrotation
		JOINT LeftUpLeg
		{
			OFFSET 15.427100 -6.655098 0.678600
			CHANNELS 3 Xrotation Yrotation Zrotation
			JOINT LeftLeg
			{
				OFFSET 4.081073 -39.591068 13.024000
				CHANNELS 3 Xrotation Yrotation Zrotation
				JOINT LeftFoot
				{
					OFFSET -4.081074 -37.707932 -15.979700
					CHANNELS 3 Xrotation Yrotation Zrotation
					JOINT LeftToeBase
					{
						OFFSET 5.346399 -15.068900 20.645000
						CHANNELS 3 Xrotation Yrotation Zrotation
						JOINT LeftToe_End
						{
							OFFSET 2.754700 0.931300 11.300900
							CHANNELS 3 Xrotation Yrotation Zrotation
							End Site
							{
								OFFSET 0 0 0
							}
						}
					}
				}
			}
		}
	}
	JOINT RightUpLeg_virtual
	{
		OFFSET 0.000000 0.000000 0.000000
		CHANNELS 3 Xrotation Yrotation Zrotation
		JOINT RightUpLeg
		{
			OFFSET -15.569500 -6.655098 0.678600
			CHANNELS 3 Xrotation Yrotation Zrotation
			JOINT RightLeg
			{
				OFFSET -4.081825 -39.591045 13.023800
				CHANNELS 3 Xrotation Yrotation Zrotation
				JOINT RightFoot
				{
					OFFSET 4.081824 -37.707954 -15.979600
					CHANNELS 3 Xrotation Yrotation Zrotation
					JOINT RightToeBase
					{
						OFFSET -5.346400 -15.068900 20.645000
						CHANNELS 3 Xrotation Yrotation Zrotation
						JOINT RightToe_End
						{
							OFFSET -2.754700 0.931300 11.300900
							CHANNELS 3 Xrotation Yrotation Zrotation
							End Site
							{
								OFFSET 0 0 0
							}
						}
					}
				}
			}
		}
	}
	JOINT Spine_virtual
	{
		OFFSET 0.000000 0.000000 0.000000
		CHANNELS 3 Xrotation Yrotation Zrotation
		JOINT Spine
		{
			OFFSET -0.279200 12.230698 -2.892100
			CHANNELS 3 Xrotation Yrotation Zrotation
			JOINT Spine1
			{
				OFFSET -0.232667 10.192268 -1.242267
				CHANNELS 3 Xrotation Yrotation Zrotation
				JOINT Spine1_split
				{
					OFFSET -0.232667 10.192268 -1.242267
					CHANNELS 3 Xrotation Yrotation Zrotation
					JOINT Spine2
					{
						OFFSET -0.232667 10.192268 -1.242267
						CHANNELS 3 Xrotation Yrotation Zrotation
						JOINT Neck_virtual
						{
							OFFSET 0.000000 0.000000 0.000000
							CHANNELS 3 Xrotation Yrotation Zrotation
							JOINT Neck
							{
								OFFSET -0.418800 17.814194 8.416900
								CHANNELS 3 Xrotation Yrotation Zrotation
								JOINT Head
								{
									OFFSET 0.000000 7.031097 3.806800
									CHANNELS 3 Xrotation Yrotation Zrotation
									JOINT HeadTop_End
									{
										OFFSET 0.000000 24.646606 12.978600
										CHANNELS 3 Xrotation Yrotation Zrotation
										End Site
										{
											OFFSET 0 0 0
										}
									}
								}
							}
						}
						JOINT LeftShoulder_virtual
						{
							OFFSET 0.000000 0.000000 0.000000
							CHANNELS 3 Xrotation Yrotation Zrotation
							JOINT LeftShoulder
							{
								OFFSET 8.476499 7.247704 -3.868750
								CHANNELS 3 Xrotation Yrotation Zrotation
								JOINT LeftShoulder_split
								{
									OFFSET 8.476499 7.247704 -3.868750
									CHANNELS 3 Xrotation Yrotation Zrotation
									JOINT LeftArm
									{
										OFFSET 9.308998 -2.777710 0.208600
										CHANNELS 3 Xrotation Yrotation Zrotation
										JOINT LeftForeArm
										{
											OFFSET 29.972298 0.000000 0.000000
											CHANNELS 3 Xrotation Yrotation Zrotation
											JOINT LeftHand
											{
												OFFSET 26.026505 0.000000 0.000000
												CHANNELS 3 Xrotation Yrotation Zrotation
												End Site
												{
													OFFSET 0 0 0
												}
											}
										}
									}
								}
							}
						}
						JOINT RightShoulder_virtual
						{
							OFFSET 0.000000 0.000000 0.000000
							CHANNELS 3 Xrotation Yrotation Zrotation
							JOINT RightShoulder
							{
								OFFSET -7.570500 7.247704 -3.868750
								CHANNELS 3 Xrotation Yrotation Zrotation
								JOINT RightShoulder_split
								{
									OFFSET -7.570500 7.247704 -3.868750
									CHANNELS 3 Xrotation Yrotation Zrotation
									JOINT RightArm
									{
										OFFSET -9.308998 -2.777710 0.208500
										CHANNELS 3 Xrotation Yrotation Zrotation
										JOINT RightForeArm
										{
											OFFSET -29.972300 0.000000 0.000000
											CHANNELS 3 Xrotation Yrotation Zrotation
											JOINT RightHand
											{
												OFFSET -26.026505 0.000000 0.000000
												CHANNELS 3 Xrotation Yrotation Zrotation
												End Site
												{
													OFFSET 0 0 0
												}
											}
										}
									}
								}
							}
						}
					}
				}
			}
		}
	}
}
MOTION
Frames: 6
Frame Time: 0.03333333
-26.189537 78.698868 -11.720930 0.000000 0.000000 0.000000 36.027803 4.803704 -2.976094 -56.023240 -21.450759 30.003074 30.414508 6.527029 -3.959419 3.722018 9.504283 -32.895520 -1.113729 -0.000002 -0.000004 0.000000 0.000000 0.000000 36.027803 4.803704 -2.976094 -61.169323 0.682851 -23.039601 46.443090 -3.036418 0.662634 -15.901094 -5.720638 21.060253 -0.000107 -0.000003 -0.000010 0.000000 0.000000 0.000000 36.027803 4.803704 -2.976094 11.189186 1.155915 -0.009658 9.606818 1.909023 0.899771 0.000000 0.000000 0.000000 0.000000 0.000000 0.000000 9.603342 2.011868 0.811203 -0.524626 -2.137136 -0.972091 -33.188231 -13.301682 4.013187 0.000000 0.000000 0.000000 9.603342 2.011868 0.811203 1.414455 -22.723534 -8.784367 0.000000 0.000000 0.000000 11.762078 -10.125582 -53.585378 0.000010 -69.152237 -0.000007 0.000000 0.000000 0.000000 9.603342 2.011868 0.811203 3.076678 26.719379 7.630342 0.000000 0.000000 0.000000 -0.858343 44.777907 17.984945 -0.000001 15.067915 -0.000001 0.000000 0.000000 0.000000 
-25.151268 77.333588 -11.606695 0.000000 0.000000 0.000000 39.092345 4.701687 -2.836556 -62.358234 -19.689929 29.496377 33.908949 6.823595 -4.136684 2.414375 6.470479 -32.058869 -1.425587 -0.000003 0.000006 0.000000 0.000000 0.000000 39.092345 4.701687 -2.836556 -65.362349 1.461056 -24.267153 48.061630 -2.141303 0.313550 -16.188020 -6.050961 22.021063 -0.000016 0.000002 -0.000002 0.000000 0.000000 0.000000 39.092345 4.701687 -2.836556 11.467659 1.537165 0.143745 9.969260 2.124028 1.135354 0.000000 0.000000 0.000000 0.000000 0.000000 0.000000 9.956427 2.298933 1.031306 -0.838432 -2.418141 -1.228873 -35.049034 -14.115563 3.169136 0.000000 0.000000 0.000000 9.956427 2.298933 1.031306 1.450536 -23.720941 -8.828589 0.000000 0.000000 0.000000 11.826649 -9.065749 -52.805613 -0.000023 -71.719889 -0.000029 0.000000 0.000000 0.000000 9.956427 2.298933 1.031306 3.294679 27.536630 7.886915 0.000000 0.000000 0.000000 -5.270272 43.242901 15.996344 -0.000007 15.853523 -0.000003 0.000000 0.000000 0.000000 
-24.038284 75.936935 -11.364889 0.000000 0.000000 0.000000 42.367575 5.262030 -2.383823 -69.207179 -17.188945 28.216907 37.055279 6.892399 -4.039790 1.278699 3.202904 -30.919836 -1.444601 0.000003 0.000003 0.000000 0.000000 0.000000 42.367575 5.262030 -2.383823 -69.568823 2.383699 -26.564072 49.797553 -1.046396 0.257565 -16.662139 -6.410129 22.981061 -0.000142 -0.000003 -0.000001 0.000000 0.000000 0.000000 42.367575 5.262030 -2.383823 11.565694 1.783704 0.289788 10.145552 2.207579 1.318640 0.000000 0.000000 0.000000 0.000000 0.000000 0.000000 10.126046 2.429382 1.208036 -1.038164 -2.677155 -1.574970 -36.658694 -14.801481 1.863103 0.000000 0.000000 0.000000 10.126046 2.429382 1.208036 1.497495 -25.154972 -8.949471 0.000000 0.000000 0.000000 13.817585 -10.051104 -52.570419 -0.000012 -73.607023 0.000008 0.000000 0.000000 0.000000 10.126046 2.429382 1.208036 3.280521 27.664711 7.784449 0.000000 0.000000 0.000000 -9.619639 42.447867 14.900322 -0.000001 16.326070 0.000008 0.000000 0.000000 0.000000 
-22.918179 74.238747 -11.055967 0.000000 0.000000 0.000000 45.361018 5.912148 -1.788056 -74.737392 -16.527859 26.902321 40.493077 5.952448 -4.740343 -0.005305 2.876995 -30.047525 -1.560270 0.000006 0.000008 0.000000 0.000000 0.000000 45.361018 5.912148 -1.788056 -72.964507 4.570658 -29.629593 51.830990 0.015644 1.589505 -17.365032 -6.891563 23.803061 -0.000253 0.000002 0.000004 0.000000 0.000000 0.000000 45.361018 5.912148 -1.788056 11.740262 2.018075 0.185963 10.419612 2.265464 1.337531 0.000000 0.000000 0.000000 0.000000 0.000000 0.000000 10.390041 2.546633 1.219551 -1.528120 -2.995716 -1.675189 -37.973051 -15.665141 0.898760 0.000000 0.000000 0.000000 10.390041 2.546633 1.219551 1.615772 -25.353608 -7.828257 0.000000 0.000000 0.000000 14.967024 -11.945076 -53.301109 -0.000025 -74.787757 -0.000021 0.000000 0.000000 0.000000 10.390041 2.546633 1.219551 3.298617 27.605133 7.865041 0.000000 0.000000 0.000000 -13.087430 42.442307 12.745399 -0.000005 16.666187 0.000005 0.000000 0.000000 0.000000 
-21.944248 72.090057 -10.615171 0.000000 0.000000 0.000000 47.973469 6.591510 -1.159657 -79.037952 -17.310428 26.281216 44.286643 5.151340 -6.454034 -1.853027 3.407708 -29.562947 -1.535710 -0.000004 -0.000002 0.000000 0.000000 0.000000 47.973469 6.591510 -1.159657 -76.679296 6.312162 -32.050099 54.768715 1.374550 1.458738 -18.561329 -7.560410 24.962134 -0.000341 0.000006 0.000004 0.000000 0.000000 0.000000 47.973469 6.591510 -1.159657 11.946026 2.365403 -0.060109 10.795030 2.436692 1.061352 0.000000 0.000000 0.000000 0.000000 0.000000 0.000000 10.760768 2.723263 0.941220 -2.162289 -3.367358 -1.619734 -39.700642 -17.011455 0.064700 0.000000 0.000000 0.000000 10.760768 2.723263 0.941220 1.700061 -25.094742 -6.831346 0.000000 0.000000 0.000000 16.047326 -13.664755 -53.668635 0.000002 -75.388800 0.000002 0.000000 0.000000 0.000000 10.760768 2.723263 0.941220 3.258690 27.386393 7.855302 0.000000 0.000000 0.000000 -15.066777 42.716078 9.793261 0.000012 17.097135 0.000010 0.000000 0.000000 0.000000 
-21.013107 69.604782 -9.970938 0.000000 0.000000 0.000000 50.086211 7.587800 -0.404935 -83.930375 -16.202723 25.018667 48.340292 2.992546 -6.909120 -4.029932 3.917295 -28.779470 -1.509158 -0.000003 0.000008 0.000000 0.000000 0.000000 50.086211 7.587800 -0.404935 -79.490206 8.719016 -34.698222 58.302358 2.581666 1.230650 -20.298135 -8.506356 26.500955 -0.000391 0.000000 -0.000006 0.000000 0.000000 0.000000 50.086211 7.587800 -0.404935 12.213342 2.727126 -0.200717 11.358265 2.601992 0.991494 0.000000 0.000000 0.000000 0.000000 0.000000 0.000000 11.314932 2.925649 0.871750 -2.990089 -3.737702 -1.772747 -41.592338 -18.230564 -0.951044 0.000000 0.000000 0.000000 11.314932 2.925649 0.871750 1.775716 -25.335047 -6.187622 0.000000 0.000000 0.000000 16.636070 -14.716449 -53.846445 -0.000061 -75.508882 -0.000078 0.000000 0.000000 0.000000 11.314932 2.925649 0.871750 3.167540 27.281649 7.638714 0.000000 0.000000 0.000000 -15.931030 42.588429 6.111237 -0.000003 17.599231 0.000002 0.000000 0.000000 0.000000 
